<svg width="26" height="26" viewBox="0 0 26 26" fill="none" xmlns="http://www.w3.org/2000/svg">
<ellipse cx="12.7849" cy="12.7848" rx="12.7849" ry="12.7848" fill="white"/>
<path d="M24.4004 12.7887C24.4004 19.0485 19.2397 24.1487 12.9059 24.1487C6.58079 24.1487 1.42017 19.0485 1.42017 12.7887C1.42017 6.5377 6.58079 1.4375 12.9059 1.4375C19.2397 1.4375 24.4004 6.5377 24.4004 12.7887ZM11.6973 6.94746C11.1063 6.94746 10.8152 7.09568 10.524 7.42697L10.03 7.95879C9.74774 8.25521 9.61542 8.34238 9.14788 8.34238H7.63056C6.44846 8.34238 5.83978 8.92651 5.83978 10.1035V16.2411C5.83978 17.4007 6.44846 17.9936 7.63056 17.9936H18.1723C19.3544 17.9936 19.972 17.4007 19.972 16.2411V10.1035C19.972 8.92651 19.3544 8.34238 18.1723 8.34238H16.5933C16.1345 8.34238 15.9846 8.27264 15.7111 7.95879L15.2172 7.42697C14.9172 7.09568 14.6349 6.94746 14.0351 6.94746H11.6973ZM16.3992 13.1026C16.3992 15.0642 14.8466 16.5637 12.9147 16.5637C10.9739 16.5637 9.41252 15.038 9.41252 13.1026C9.41252 11.1933 10.9739 9.65013 12.9147 9.65013C14.8466 9.65013 16.3992 11.1933 16.3992 13.1026ZM10.3123 13.1026C10.3123 14.5324 11.4768 15.6744 12.9059 15.6744C14.335 15.6744 15.4995 14.5324 15.4995 13.1026C15.4995 11.6815 14.335 10.5394 12.9059 10.5394C11.4768 10.5394 10.3123 11.6815 10.3123 13.1026ZM18.5429 10.5045C18.5429 10.9056 18.2077 11.2369 17.793 11.2369C17.3872 11.2369 17.0521 10.9056 17.0521 10.5045C17.0521 10.086 17.3872 9.75475 17.793 9.75475C18.2077 9.75475 18.5429 10.086 18.5429 10.5045Z" fill="#C4C4C4"/>
</svg>
