<svg width="20" height="20" viewBox="0 0 20 20" fill="none" xmlns="http://www.w3.org/2000/svg">
<path d="M4.74999 13.5112C4.49999 13.7612 4.2361 13.8376 3.95833 13.7404C3.66666 13.6432 3.47222 13.4488 3.37499 13.1571C3.27777 12.8515 3.34722 12.5807 3.58333 12.3446L9.41666 6.49042C9.59722 6.30986 9.79166 6.21958 9.99999 6.21958C10.1944 6.21958 10.3889 6.30986 10.5833 6.49042L16.4167 12.3446C16.6528 12.5807 16.7222 12.8446 16.625 13.1363C16.5278 13.4279 16.3403 13.6293 16.0625 13.7404C15.7708 13.8376 15.5 13.7612 15.25 13.5112L9.99999 8.28208L4.74999 13.5112Z" fill="#545454"/>
</svg>
